# xmcd CD database file
#
# Track frame offsets:
#	150
#	15496
#	29564
#	46819
#	66159
#	83775
#	103129
#	121686
#	138322
#	156657
#
# Disc length: 2327 seconds
#
# Revision: 0
# Processed by: cddbd v1.5.2PL0 Copyright (c) Steve Scherf et al.
# Submitted via: CDex 1.70beta2
#
DISCID=8009150a
DTITLE=Togni , Gianni - Le Mie Strade (1981) - Le Mie Strade
DYEAR=1981
DGENRE=Musica Italiana
TTITLE0=Ombre Cinesi (Guido Morra-Gianni Togni)
TTITLE1=Voglio Un Pò Di Amsterdam (Guido Morra-Gianni Togni)
TTITLE2=Avanspettacolo (Guido Morra-Gianni Togni)
TTITLE3=Ma Perdio (Guido Morra-Gianni Togni)
TTITLE4=Notte Di Città (Guido Morra-Gianni Togni)
TTITLE5=Semplice (Guido Morra-Gianni Togni)
TTITLE6=Attimi (Guido Morra-Gianni Togni)
TTITLE7=Fred Astaire All'Università (Guido Morra-Gianni Togni)
TTITLE8=Quartiere (Guido Morra-Gianni Togni)
TTITLE9=Carla (Guido Morra-Gianni Togni)
EXTD=YEAR: 1981
EXTT0=
EXTT1=
EXTT2=
EXTT3=
EXTT4=
EXTT5=
EXTT6=
EXTT7=
EXTT8=
EXTT9=
PLAYORDER=
